<svg width="35" height="35" viewBox="0 0 35 35" fill="none" xmlns="http://www.w3.org/2000/svg">
<path d="M27.7004 6.77023C26.8061 6.48833 25.8011 6.35147 24.6401 6.27982C23.3129 6.19793 21.7002 6.19793 19.7215 6.19794H15.2553C12.917 6.19793 11.084 6.19792 9.61954 6.33716C8.12686 6.47908 6.90463 6.77335 5.82718 7.43361C4.69888 8.12504 3.75023 9.07368 3.05881 10.202C3.03431 10.242 3.01032 10.2821 2.98682 10.3225C3.09954 8.21792 3.39396 6.82403 4.16296 5.72058C4.56539 5.14312 5.05249 4.6353 5.60638 4.21576C7.32144 2.91669 9.76795 2.91669 14.661 2.91669H22.4903C24.9509 2.91669 26.1811 2.91669 26.9455 3.71359C27.5326 4.32564 27.6688 5.22418 27.7004 6.77023Z" fill="#FAFAFA"/>
<path d="M3.99125 10.7735C2.91675 12.5269 2.91675 14.9138 2.91675 19.6875C2.91675 24.4613 2.91675 26.8482 3.99125 28.6016C4.59249 29.5827 5.4174 30.4076 6.39853 31.0089C8.15195 32.0834 10.5388 32.0834 15.3126 32.0834H19.6876C24.4613 32.0834 26.8482 32.0834 28.6016 31.0089C29.5828 30.4076 30.4077 29.5827 31.0089 28.6016C31.7146 27.45 31.9568 26.0252 32.04 23.8305H22.8032C20.0026 23.8305 17.7322 21.5602 17.7322 18.7595C17.7322 15.9589 20.0026 13.6885 22.8032 13.6885H31.905C31.7589 12.4815 31.4929 11.5632 31.0089 10.7735C30.4077 9.79233 29.5828 8.96742 28.6016 8.36619C28.3223 8.19503 28.027 8.05113 27.7084 7.93016C26.0272 7.29169 23.7009 7.29169 19.6876 7.29169H15.3126C10.5388 7.29169 8.15195 7.29169 6.39853 8.36619C5.4174 8.96742 4.59249 9.79233 3.99125 10.7735Z" fill="#FAFAFA"/>
<path fill-rule="evenodd" clip-rule="evenodd" d="M32.0512 15.876H22.8032C21.2107 15.876 19.9197 17.167 19.9197 18.7595C19.9197 20.352 21.2107 21.643 22.8032 21.643H32.08C32.0834 21.039 32.0834 20.3891 32.0834 19.6875C32.0834 18.2041 32.0834 16.9511 32.0512 15.876ZM22.8032 17.6658C22.1992 17.6658 21.7095 18.1555 21.7095 18.7595C21.7095 19.3636 22.1992 19.8533 22.8032 19.8533H26.7805C27.3846 19.8533 27.8743 19.3636 27.8743 18.7595C27.8743 18.1555 27.3846 17.6658 26.7805 17.6658H22.8032Z" fill="#FAFAFA"/>
</svg>
