<svg width="29" height="29" viewBox="0 0 29 29" fill="none" xmlns="http://www.w3.org/2000/svg">
<path fill-rule="evenodd" clip-rule="evenodd" d="M12.75 0.3125C6.01903 0.3125 0.5625 5.76903 0.5625 12.5C0.5625 19.231 6.01903 24.6875 12.75 24.6875C19.481 24.6875 24.9375 19.231 24.9375 12.5C24.9375 5.76903 19.481 0.3125 12.75 0.3125ZM2.4375 12.5C2.4375 6.80456 7.05456 2.1875 12.75 2.1875C18.4454 2.1875 23.0625 6.80456 23.0625 12.5C23.0625 18.1954 18.4454 22.8125 12.75 22.8125C7.05456 22.8125 2.4375 18.1954 2.4375 12.5Z" fill="#FAFAFA"/>
<path d="M23.413 21.8372C23.0469 21.4711 22.4533 21.4711 22.0872 21.8372C21.7211 22.2033 21.7211 22.7969 22.0872 23.163L27.087 28.163C27.4531 28.5291 28.0467 28.5291 28.4129 28.163C28.779 27.7969 28.779 27.2033 28.4129 26.8371L23.413 21.8372Z" fill="#FAFAFA"/>
</svg>